<?xml version="1.0" encoding="ISO-8859-1"?>
<!-- Converted from Font Awesome. Glyph: f0e2 -->
<!DOCTYPE svg PUBLIC "-//W3C//DTD SVG 1.1//EN" "http://www.w3.org/Graphics/SVG/1.1/DTD/svg11.dtd">
<svg version="1.1" xmlns="http://www.w3.org/2000/svg" xmlns:xlink="http://www.w3.org/1999/xlink" width="2048" height="2048" xml:space="preserve">
<g transform="translate(256, 1664) scale(1, -1)">
	<path id="undo" d="M1536 640q0 -156 -61 -298t-164 -245t-245 -164t-298 -61q-179 0 -336.5 76t-266 213t-147.5 312q-3 14 7 27q9 12 25 12h199q23 0 30 -23q50 -162 185 -261.5t304 -99.5q104 0 198.5 40.5t163.5 109.5t109.5 163.5t40.5 198.5t-40.5 198.5t-109.5 163.5t-163.5 109.5 t-198.5 40.5q-98 0 -188 -35.5t-160 -101.5l137 -138q31 -30 14 -69q-17 -40 -59 -40h-448q-26 0 -45 19t-19 45v448q0 42 40 59q39 17 69 -14l130 -129q107 101 244.5 156.5t284.5 55.5q156 0 298 -61t245 -164t164 -245t61 -298z" />
</g>
</svg>	
