<?xml version="1.0" encoding="ISO-8859-1"?>
<!-- Converted from Font Awesome. Glyph: f0f9 -->
<!DOCTYPE svg PUBLIC "-//W3C//DTD SVG 1.1//EN" "http://www.w3.org/Graphics/SVG/1.1/DTD/svg11.dtd">
<svg version="1.1" xmlns="http://www.w3.org/2000/svg" xmlns:xlink="http://www.w3.org/1999/xlink" width="2048" height="2048" xml:space="preserve">
<g transform="translate(64, 1664) scale(1, -1)">
	<path id="ambulance" d="M640 128q0 53 -37.5 90.5t-90.5 37.5t-90.5 -37.5t-37.5 -90.5t37.5 -90.5t90.5 -37.5t90.5 37.5t37.5 90.5zM256 640h384v256h-158q-14 -2 -22 -9l-195 -195q-7 -12 -9 -22v-30zM1536 128q0 53 -37.5 90.5t-90.5 37.5t-90.5 -37.5t-37.5 -90.5t37.5 -90.5t90.5 -37.5 t90.5 37.5t37.5 90.5zM1664 800v192q0 14 -9 23t-23 9h-224v224q0 14 -9 23t-23 9h-192q-14 0 -23 -9t-9 -23v-224h-224q-14 0 -23 -9t-9 -23v-192q0 -14 9 -23t23 -9h224v-224q0 -14 9 -23t23 -9h192q14 0 23 9t9 23v224h224q14 0 23 9t9 23zM1920 1344v-1152 q0 -26 -19 -45t-45 -19h-192q0 -106 -75 -181t-181 -75t-181 75t-75 181h-384q0 -106 -75 -181t-181 -75t-181 75t-75 181h-128q-26 0 -45 19t-19 45t19 45t45 19v416q0 26 13 58t32 51l198 198q19 19 51 32t58 13h160v320q0 26 19 45t45 19h1152q26 0 45 -19t19 -45z" />
</g>
</svg>	
