<?xml version="1.0" encoding="ISO-8859-1"?>
<!-- Converted from Font Awesome. Glyph: f030 -->
<!DOCTYPE svg PUBLIC "-//W3C//DTD SVG 1.1//EN" "http://www.w3.org/Graphics/SVG/1.1/DTD/svg11.dtd">
<svg version="1.1" xmlns="http://www.w3.org/2000/svg" xmlns:xlink="http://www.w3.org/1999/xlink" width="2048" height="2048" xml:space="preserve">
<g transform="translate(64, 1664) scale(1, -1)">
	<path id="camera" d="M960 864q119 0 203.5 -84.5t84.5 -203.5t-84.5 -203.5t-203.5 -84.5t-203.5 84.5t-84.5 203.5t84.5 203.5t203.5 84.5zM1664 1280q106 0 181 -75t75 -181v-896q0 -106 -75 -181t-181 -75h-1408q-106 0 -181 75t-75 181v896q0 106 75 181t181 75h224l51 136 q19 49 69.5 84.5t103.5 35.5h512q53 0 103.5 -35.5t69.5 -84.5l51 -136h224zM960 128q185 0 316.5 131.5t131.5 316.5t-131.5 316.5t-316.5 131.5t-316.5 -131.5t-131.5 -316.5t131.5 -316.5t316.5 -131.5z" />
</g>
</svg>	
