<?xml version="1.0" encoding="ISO-8859-1"?>
<!-- Converted from Font Awesome. Glyph: f078 -->
<!DOCTYPE svg PUBLIC "-//W3C//DTD SVG 1.1//EN" "http://www.w3.org/Graphics/SVG/1.1/DTD/svg11.dtd">
<svg version="1.1" xmlns="http://www.w3.org/2000/svg" xmlns:xlink="http://www.w3.org/1999/xlink" width="2048" height="2048" xml:space="preserve">
<g transform="translate(192, 1664) scale(1, -1)">
	<path id="chevron-down" d="M1611 832q0 -53 -37 -90l-651 -651q-38 -38 -91 -38q-54 0 -90 38l-651 651q-38 36 -38 90q0 53 38 91l74 75q39 37 91 37q53 0 90 -37l486 -486l486 486q37 37 90 37q52 0 91 -37l75 -75q37 -39 37 -91z" />
</g>
</svg>	
