<?xml version="1.0" encoding="ISO-8859-1"?>
<!-- Converted from Font Awesome. Glyph: f0c5 -->
<!DOCTYPE svg PUBLIC "-//W3C//DTD SVG 1.1//EN" "http://www.w3.org/Graphics/SVG/1.1/DTD/svg11.dtd">
<svg version="1.1" xmlns="http://www.w3.org/2000/svg" xmlns:xlink="http://www.w3.org/1999/xlink" width="2048" height="2048" xml:space="preserve">
<g transform="translate(128, 1664) scale(1, -1)">
	<path id="copy" d="M1696 1152q40 0 68 -28t28 -68v-1216q0 -40 -28 -68t-68 -28h-960q-40 0 -68 28t-28 68v288h-544q-40 0 -68 28t-28 68v672q0 40 20 88t48 76l408 408q28 28 76 48t88 20h416q40 0 68 -28t28 -68v-328q68 40 128 40h416zM1152 939l-299 -299h299v299zM512 1323l-299 -299 h299v299zM708 676l316 316v416h-384v-416q0 -40 -28 -68t-68 -28h-416v-640h512v256q0 40 20 88t48 76zM1664 -128v1152h-384v-416q0 -40 -28 -68t-68 -28h-416v-640h896z" />
</g>
</svg>	
