<?xml version="1.0" encoding="ISO-8859-1"?>
<!-- Converted from Font Awesome. Glyph: f0ca -->
<!DOCTYPE svg PUBLIC "-//W3C//DTD SVG 1.1//EN" "http://www.w3.org/Graphics/SVG/1.1/DTD/svg11.dtd">
<svg version="1.1" xmlns="http://www.w3.org/2000/svg" xmlns:xlink="http://www.w3.org/1999/xlink" width="2048" height="2048" xml:space="preserve">
<g transform="translate(128, 1664) scale(1, -1)">
	<path id="list-ul" d="M384 128q0 -80 -56 -136t-136 -56t-136 56t-56 136t56 136t136 56t136 -56t56 -136zM384 640q0 -80 -56 -136t-136 -56t-136 56t-56 136t56 136t136 56t136 -56t56 -136zM1792 224v-192q0 -13 -9.5 -22.5t-22.5 -9.5h-1216q-13 0 -22.5 9.5t-9.5 22.5v192q0 13 9.5 22.5 t22.5 9.5h1216q13 0 22.5 -9.5t9.5 -22.5zM384 1152q0 -80 -56 -136t-136 -56t-136 56t-56 136t56 136t136 56t136 -56t56 -136zM1792 736v-192q0 -13 -9.5 -22.5t-22.5 -9.5h-1216q-13 0 -22.5 9.5t-9.5 22.5v192q0 13 9.5 22.5t22.5 9.5h1216q13 0 22.5 -9.5t9.5 -22.5z M1792 1248v-192q0 -13 -9.5 -22.5t-22.5 -9.5h-1216q-13 0 -22.5 9.5t-9.5 22.5v192q0 13 9.5 22.5t22.5 9.5h1216q13 0 22.5 -9.5t9.5 -22.5z" />
</g>
</svg>	
