<?xml version="1.0" encoding="ISO-8859-1"?>
<!-- Converted from Font Awesome. Glyph: f00d -->
<!DOCTYPE svg PUBLIC "-//W3C//DTD SVG 1.1//EN" "http://www.w3.org/Graphics/SVG/1.1/DTD/svg11.dtd">
<svg version="1.1" xmlns="http://www.w3.org/2000/svg" xmlns:xlink="http://www.w3.org/1999/xlink" width="2048" height="2048" xml:space="preserve">
<g transform="translate(320, 1664) scale(1, -1)">
	<path id="remove" d="M1298 214q0 -40 -28 -68l-136 -136q-28 -28 -68 -28t-68 28l-294 294l-294 -294q-28 -28 -68 -28t-68 28l-136 136q-28 28 -28 68t28 68l294 294l-294 294q-28 28 -28 68t28 68l136 136q28 28 68 28t68 -28l294 -294l294 294q28 28 68 28t68 -28l136 -136q28 -28 28 -68 t-28 -68l-294 -294l294 -294q28 -28 28 -68z" />
</g>
</svg>	
