<?xml version="1.0" encoding="ISO-8859-1"?>
<!-- Converted from Font Awesome. Glyph: f018 -->
<!DOCTYPE svg PUBLIC "-//W3C//DTD SVG 1.1//EN" "http://www.w3.org/Graphics/SVG/1.1/DTD/svg11.dtd">
<svg version="1.1" xmlns="http://www.w3.org/2000/svg" xmlns:xlink="http://www.w3.org/1999/xlink" width="2048" height="2048" xml:space="preserve">
<g transform="translate(64, 1664) scale(1, -1)">
	<path id="road" d="M1111 540v4l-24 320q-1 13 -11 22.5t-23 9.5h-186q-13 0 -23 -9.5t-11 -22.5l-24 -320v-4q-1 -12 8 -20t21 -8h244q12 0 21 8t8 20zM1870 73q0 -73 -46 -73h-704q13 0 22 9.5t8 22.5l-20 256q-1 13 -11 22.5t-23 9.5h-272q-13 0 -23 -9.5t-11 -22.5l-20 -256 q-1 -13 8 -22.5t22 -9.5h-704q-46 0 -46 73q0 54 26 116l417 1044q8 19 26 33t38 14h339q-13 0 -23 -9.5t-11 -22.5l-15 -192q-1 -14 8 -23t22 -9h166q13 0 22 9t8 23l-15 192q-1 13 -11 22.5t-23 9.5h339q20 0 38 -14t26 -33l417 -1044q26 -62 26 -116z" />
</g>
</svg>	
