<?xml version="1.0" encoding="ISO-8859-1"?>
<!-- Converted from Font Awesome. Glyph: f062 -->
<!DOCTYPE svg PUBLIC "-//W3C//DTD SVG 1.1//EN" "http://www.w3.org/Graphics/SVG/1.1/DTD/svg11.dtd">
<svg version="1.1" xmlns="http://www.w3.org/2000/svg" xmlns:xlink="http://www.w3.org/1999/xlink" width="2048" height="2048" xml:space="preserve">
<g transform="translate(192, 1664) scale(1, -1)">
	<path id="arrow-up" d="M1611 565q0 -51 -37 -90l-75 -75q-38 -38 -91 -38q-54 0 -90 38l-294 293v-704q0 -52 -37.5 -84.5t-90.5 -32.5h-128q-53 0 -90.5 32.5t-37.5 84.5v704l-294 -293q-36 -38 -90 -38t-90 38l-75 75q-38 38 -38 90q0 53 38 91l651 651q35 37 90 37q54 0 91 -37l651 -651 q37 -39 37 -91z" />
</g>
</svg>	
