<?xml version="1.0" encoding="ISO-8859-1"?>
<!-- Converted from Font Awesome. Glyph: f125 -->
<!DOCTYPE svg PUBLIC "-//W3C//DTD SVG 1.1//EN" "http://www.w3.org/Graphics/SVG/1.1/DTD/svg11.dtd">
<svg version="1.1" xmlns="http://www.w3.org/2000/svg" xmlns:xlink="http://www.w3.org/1999/xlink" width="2048" height="2048" xml:space="preserve">
<g transform="translate(192, 1664) scale(1, -1)">
	<path id="crop" d="M557 256h595v595zM512 301l595 595h-595v-595zM1664 224v-192q0 -14 -9 -23t-23 -9h-224v-224q0 -14 -9 -23t-23 -9h-192q-14 0 -23 9t-9 23v224h-864q-14 0 -23 9t-9 23v864h-224q-14 0 -23 9t-9 23v192q0 14 9 23t23 9h224v224q0 14 9 23t23 9h192q14 0 23 -9t9 -23 v-224h851l246 247q10 9 23 9t23 -9q9 -10 9 -23t-9 -23l-247 -246v-851h224q14 0 23 -9t9 -23z" />
</g>
</svg>	
