<?xml version="1.0" encoding="ISO-8859-1"?>
<!-- Converted from Font Awesome. Glyph: f016 -->
<!DOCTYPE svg PUBLIC "-//W3C//DTD SVG 1.1//EN" "http://www.w3.org/Graphics/SVG/1.1/DTD/svg11.dtd">
<svg version="1.1" xmlns="http://www.w3.org/2000/svg" xmlns:xlink="http://www.w3.org/1999/xlink" width="2048" height="2048" xml:space="preserve">
<g transform="translate(384, 1664) scale(1, -1)">
	<path id="file-alt" d="M128 0h1024v768h-416q-40 0 -68 28t-28 68v416h-512v-1280zM768 896h376q-10 29 -22 41l-313 313q-12 12 -41 22v-376zM1280 864v-896q0 -40 -28 -68t-68 -28h-1088q-40 0 -68 28t-28 68v1344q0 40 28 68t68 28h640q40 0 88 -20t76 -48l312 -312q28 -28 48 -76t20 -88z " />
</g>
</svg>	
