<?xml version="1.0" encoding="ISO-8859-1"?>
<!-- Converted from Font Awesome. Glyph: f114 -->
<!DOCTYPE svg PUBLIC "-//W3C//DTD SVG 1.1//EN" "http://www.w3.org/Graphics/SVG/1.1/DTD/svg11.dtd">
<svg version="1.1" xmlns="http://www.w3.org/2000/svg" xmlns:xlink="http://www.w3.org/1999/xlink" width="2048" height="2048" xml:space="preserve">
<g transform="translate(192, 1664) scale(1, -1)">
	<path id="folder-close-alt" d="M1536 224v704q0 40 -28 68t-68 28h-704q-40 0 -68 28t-28 68v64q0 40 -28 68t-68 28h-320q-40 0 -68 -28t-28 -68v-960q0 -40 28 -68t68 -28h1216q40 0 68 28t28 68zM1664 928v-704q0 -92 -66 -158t-158 -66h-1216q-92 0 -158 66t-66 158v960q0 92 66 158t158 66h320 q92 0 158 -66t66 -158v-32h672q92 0 158 -66t66 -158z" />
</g>
</svg>	
