<?xml version="1.0" encoding="ISO-8859-1"?>
<!-- Converted from Font Awesome. Glyph: f10b -->
<!DOCTYPE svg PUBLIC "-//W3C//DTD SVG 1.1//EN" "http://www.w3.org/Graphics/SVG/1.1/DTD/svg11.dtd">
<svg version="1.1" xmlns="http://www.w3.org/2000/svg" xmlns:xlink="http://www.w3.org/1999/xlink" width="2048" height="2048" xml:space="preserve">
<g transform="translate(640, 1664) scale(1, -1)">
	<path id="mobile-phone" d="M464 128q0 33 -23.5 56.5t-56.5 23.5t-56.5 -23.5t-23.5 -56.5t23.5 -56.5t56.5 -23.5t56.5 23.5t23.5 56.5zM672 288v704q0 13 -9.5 22.5t-22.5 9.5h-512q-13 0 -22.5 -9.5t-9.5 -22.5v-704q0 -13 9.5 -22.5t22.5 -9.5h512q13 0 22.5 9.5t9.5 22.5zM480 1136 q0 16 -16 16h-160q-16 0 -16 -16t16 -16h160q16 0 16 16zM768 1152v-1024q0 -52 -38 -90t-90 -38h-512q-52 0 -90 38t-38 90v1024q0 52 38 90t90 38h512q52 0 90 -38t38 -90z" />
</g>
</svg>	
