<?xml version="1.0" encoding="ISO-8859-1"?>
<!-- Converted from Font Awesome. Glyph: f07d -->
<!DOCTYPE svg PUBLIC "-//W3C//DTD SVG 1.1//EN" "http://www.w3.org/Graphics/SVG/1.1/DTD/svg11.dtd">
<svg version="1.1" xmlns="http://www.w3.org/2000/svg" xmlns:xlink="http://www.w3.org/1999/xlink" width="2048" height="2048" xml:space="preserve">
<g transform="translate(640, 1664) scale(1, -1)">
	<path id="resize-vertical" d="M704 1216q0 -26 -19 -45t-45 -19h-128v-1024h128q26 0 45 -19t19 -45t-19 -45l-256 -256q-19 -19 -45 -19t-45 19l-256 256q-19 19 -19 45t19 45t45 19h128v1024h-128q-26 0 -45 19t-19 45t19 45l256 256q19 19 45 19t45 -19l256 -256q19 -19 19 -45z" />
</g>
</svg>	
