<?xml version="1.0" encoding="ISO-8859-1"?>
<!-- Converted from Font Awesome. Glyph: f16c -->
<!DOCTYPE svg PUBLIC "-//W3C//DTD SVG 1.1//EN" "http://www.w3.org/Graphics/SVG/1.1/DTD/svg11.dtd">
<svg version="1.1" xmlns="http://www.w3.org/2000/svg" xmlns:xlink="http://www.w3.org/1999/xlink" width="2048" height="2048" xml:space="preserve">
<g transform="translate(320, 1664) scale(1, -1)">
	<path id="stackexchange" d="M928 135v-151l-707 -1v151zM1169 481v-701l-1 -35v-1h-1132l-35 1h-1v736h121v-618h928v618h120zM241 393l704 -65l-13 -150l-705 65zM309 709l683 -183l-39 -146l-683 183zM472 1058l609 -360l-77 -130l-609 360zM832 1389l398 -585l-124 -85l-399 584zM1285 1536 l121 -697l-149 -26l-121 697z" />
</g>
</svg>	
