<?xml version="1.0" encoding="ISO-8859-1"?>
<!-- Converted from Font Awesome. Glyph: f038 -->
<!DOCTYPE svg PUBLIC "-//W3C//DTD SVG 1.1//EN" "http://www.w3.org/Graphics/SVG/1.1/DTD/svg11.dtd">
<svg version="1.1" xmlns="http://www.w3.org/2000/svg" xmlns:xlink="http://www.w3.org/1999/xlink" width="2048" height="2048" xml:space="preserve">
<g transform="translate(128, 1664) scale(1, -1)">
	<path id="align-right" d="M1792 192v-128q0 -26 -19 -45t-45 -19h-1664q-26 0 -45 19t-19 45v128q0 26 19 45t45 19h1664q26 0 45 -19t19 -45zM1792 576v-128q0 -26 -19 -45t-45 -19h-1280q-26 0 -45 19t-19 45v128q0 26 19 45t45 19h1280q26 0 45 -19t19 -45zM1792 960v-128q0 -26 -19 -45 t-45 -19h-1536q-26 0 -45 19t-19 45v128q0 26 19 45t45 19h1536q26 0 45 -19t19 -45zM1792 1344v-128q0 -26 -19 -45t-45 -19h-1152q-26 0 -45 19t-19 45v128q0 26 19 45t45 19h1152q26 0 45 -19t19 -45z" />
</g>
</svg>	
