<?xml version="1.0" encoding="ISO-8859-1"?>
<!-- Converted from Font Awesome. Glyph: f063 -->
<!DOCTYPE svg PUBLIC "-//W3C//DTD SVG 1.1//EN" "http://www.w3.org/Graphics/SVG/1.1/DTD/svg11.dtd">
<svg version="1.1" xmlns="http://www.w3.org/2000/svg" xmlns:xlink="http://www.w3.org/1999/xlink" width="2048" height="2048" xml:space="preserve">
<g transform="translate(192, 1664) scale(1, -1)">
	<path id="arrow-down" d="M1611 704q0 -53 -37 -90l-651 -652q-39 -37 -91 -37q-53 0 -90 37l-651 652q-38 36 -38 90q0 53 38 91l74 75q39 37 91 37q53 0 90 -37l294 -294v704q0 52 38 90t90 38h128q52 0 90 -38t38 -90v-704l294 294q37 37 90 37q52 0 91 -37l75 -75q37 -39 37 -91z" />
</g>
</svg>	
