<?xml version="1.0" encoding="ISO-8859-1"?>
<!-- Converted from Font Awesome. Glyph: f060 -->
<!DOCTYPE svg PUBLIC "-//W3C//DTD SVG 1.1//EN" "http://www.w3.org/Graphics/SVG/1.1/DTD/svg11.dtd">
<svg version="1.1" xmlns="http://www.w3.org/2000/svg" xmlns:xlink="http://www.w3.org/1999/xlink" width="2048" height="2048" xml:space="preserve">
<g transform="translate(256, 1664) scale(1, -1)">
	<path id="arrow-left" d="M1536 640v-128q0 -53 -32.5 -90.5t-84.5 -37.5h-704l293 -294q38 -36 38 -90t-38 -90l-75 -76q-37 -37 -90 -37q-52 0 -91 37l-651 652q-37 37 -37 90q0 52 37 91l651 650q38 38 91 38q52 0 90 -38l75 -74q38 -38 38 -91t-38 -91l-293 -293h704q52 0 84.5 -37.5 t32.5 -90.5z" />
</g>
</svg>	
