<?xml version="1.0" encoding="ISO-8859-1"?>
<!-- Converted from Font Awesome. Glyph: f061 -->
<!DOCTYPE svg PUBLIC "-//W3C//DTD SVG 1.1//EN" "http://www.w3.org/Graphics/SVG/1.1/DTD/svg11.dtd">
<svg version="1.1" xmlns="http://www.w3.org/2000/svg" xmlns:xlink="http://www.w3.org/1999/xlink" width="2048" height="2048" xml:space="preserve">
<g transform="translate(256, 1664) scale(1, -1)">
	<path id="arrow-right" d="M1472 576q0 -54 -37 -91l-651 -651q-39 -37 -91 -37q-51 0 -90 37l-75 75q-38 38 -38 91t38 91l293 293h-704q-52 0 -84.5 37.5t-32.5 90.5v128q0 53 32.5 90.5t84.5 37.5h704l-293 294q-38 36 -38 90t38 90l75 75q38 38 90 38q53 0 91 -38l651 -651q37 -35 37 -90z" />
</g>
</svg>	
