<?xml version="1.0" encoding="ISO-8859-1"?>
<!-- Converted from Font Awesome. Glyph: f069 -->
<!DOCTYPE svg PUBLIC "-//W3C//DTD SVG 1.1//EN" "http://www.w3.org/Graphics/SVG/1.1/DTD/svg11.dtd">
<svg version="1.1" xmlns="http://www.w3.org/2000/svg" xmlns:xlink="http://www.w3.org/1999/xlink" width="2048" height="2048" xml:space="preserve">
<g transform="translate(192, 1664) scale(1, -1)">
	<path id="asterisk" d="M1482 486q46 -26 59.5 -77.5t-12.5 -97.5l-64 -110q-26 -46 -77.5 -59.5t-97.5 12.5l-266 153v-307q0 -52 -38 -90t-90 -38h-128q-52 0 -90 38t-38 90v307l-266 -153q-46 -26 -97.5 -12.5t-77.5 59.5l-64 110q-26 46 -12.5 97.5t59.5 77.5l266 154l-266 154 q-46 26 -59.5 77.5t12.5 97.5l64 110q26 46 77.5 59.5t97.5 -12.5l266 -153v307q0 52 38 90t90 38h128q52 0 90 -38t38 -90v-307l266 153q46 26 97.5 12.5t77.5 -59.5l64 -110q26 -46 12.5 -97.5t-59.5 -77.5l-266 -154z" />
</g>
</svg>	
