<?xml version="1.0" encoding="ISO-8859-1"?>
<!-- Converted from Font Awesome. Glyph: f0b1 -->
<!DOCTYPE svg PUBLIC "-//W3C//DTD SVG 1.1//EN" "http://www.w3.org/Graphics/SVG/1.1/DTD/svg11.dtd">
<svg version="1.1" xmlns="http://www.w3.org/2000/svg" xmlns:xlink="http://www.w3.org/1999/xlink" width="2048" height="2048" xml:space="preserve">
<g transform="translate(128, 1664) scale(1, -1)">
	<path id="briefcase" d="M640 1280h512v128h-512v-128zM1792 640v-480q0 -66 -47 -113t-113 -47h-1472q-66 0 -113 47t-47 113v480h672v-160q0 -26 19 -45t45 -19h320q26 0 45 19t19 45v160h672zM1024 640v-128h-256v128h256zM1792 1120v-384h-1792v384q0 66 47 113t113 47h352v160q0 40 28 68 t68 28h576q40 0 68 -28t28 -68v-160h352q66 0 113 -47t47 -113z" />
</g>
</svg>	
