<?xml version="1.0" encoding="ISO-8859-1"?>
<!-- Converted from Font Awesome. Glyph: f0a8 -->
<!DOCTYPE svg PUBLIC "-//W3C//DTD SVG 1.1//EN" "http://www.w3.org/Graphics/SVG/1.1/DTD/svg11.dtd">
<svg version="1.1" xmlns="http://www.w3.org/2000/svg" xmlns:xlink="http://www.w3.org/1999/xlink" width="2048" height="2048" xml:space="preserve">
<g transform="translate(256, 1664) scale(1, -1)">
	<path id="circle-arrow-left" d="M1280 576v128q0 26 -19 45t-45 19h-502l189 189q19 19 19 45t-19 45l-91 91q-18 18 -45 18t-45 -18l-362 -362l-91 -91q-18 -18 -18 -45t18 -45l91 -91l362 -362q18 -18 45 -18t45 18l91 91q18 18 18 45t-18 45l-189 189h502q26 0 45 19t19 45zM1536 640 q0 -209 -103 -385.5t-279.5 -279.5t-385.5 -103t-385.5 103t-279.5 279.5t-103 385.5t103 385.5t279.5 279.5t385.5 103t385.5 -103t279.5 -279.5t103 -385.5z" />
</g>
</svg>	
