<?xml version="1.0" encoding="ISO-8859-1"?>
<!-- Converted from Font Awesome. Glyph: f0ee -->
<!DOCTYPE svg PUBLIC "-//W3C//DTD SVG 1.1//EN" "http://www.w3.org/Graphics/SVG/1.1/DTD/svg11.dtd">
<svg version="1.1" xmlns="http://www.w3.org/2000/svg" xmlns:xlink="http://www.w3.org/1999/xlink" width="2048" height="2048" xml:space="preserve">
<g transform="translate(64, 1664) scale(1, -1)">
	<path id="cloud-upload" d="M1280 672q0 14 -9 23l-352 352q-9 9 -23 9t-23 -9l-351 -351q-10 -12 -10 -24q0 -14 9 -23t23 -9h224v-352q0 -13 9.5 -22.5t22.5 -9.5h192q13 0 22.5 9.5t9.5 22.5v352h224q13 0 22.5 9.5t9.5 22.5zM1920 384q0 -159 -112.5 -271.5t-271.5 -112.5h-1088 q-185 0 -316.5 131.5t-131.5 316.5q0 130 70 240t188 165q-2 30 -2 43q0 212 150 362t362 150q156 0 285.5 -87t188.5 -231q71 62 166 62q106 0 181 -75t75 -181q0 -76 -41 -138q130 -31 213.5 -135.5t83.5 -238.5z" />
</g>
</svg>	
