<?xml version="1.0" encoding="ISO-8859-1"?>
<!-- Converted from Font Awesome. Glyph: f117 -->
<!DOCTYPE svg PUBLIC "-//W3C//DTD SVG 1.1//EN" "http://www.w3.org/Graphics/SVG/1.1/DTD/svg11.dtd">
<svg version="1.1" xmlns="http://www.w3.org/2000/svg" xmlns:xlink="http://www.w3.org/1999/xlink" width="2048" height="2048" xml:space="preserve">
<g transform="translate(448, 1664) scale(1, -1)">
	<path id="collapse-alt" d="M928 1152q93 0 158.5 -65.5t65.5 -158.5v-704q0 -92 -65.5 -158t-158.5 -66h-704q-93 0 -158.5 66t-65.5 158v704q0 93 65.5 158.5t158.5 65.5h704zM1024 224v704q0 40 -28 68t-68 28h-704q-40 0 -68 -28t-28 -68v-704q0 -40 28 -68t68 -28h704q40 0 68 28t28 68z M864 640q14 0 23 -9t9 -23v-64q0 -14 -9 -23t-23 -9h-576q-14 0 -23 9t-9 23v64q0 14 9 23t23 9h576z" />
</g>
</svg>	
