<?xml version="1.0" encoding="ISO-8859-1"?>
<!-- Converted from Font Awesome. Glyph: f0db -->
<!DOCTYPE svg PUBLIC "-//W3C//DTD SVG 1.1//EN" "http://www.w3.org/Graphics/SVG/1.1/DTD/svg11.dtd">
<svg version="1.1" xmlns="http://www.w3.org/2000/svg" xmlns:xlink="http://www.w3.org/1999/xlink" width="2048" height="2048" xml:space="preserve">
<g transform="translate(192, 1664) scale(1, -1)">
	<path id="columns" d="M160 0h608v1152h-640v-1120q0 -13 9.5 -22.5t22.5 -9.5zM1536 32v1120h-640v-1152h608q13 0 22.5 9.5t9.5 22.5zM1664 1248v-1216q0 -66 -47 -113t-113 -47h-1344q-66 0 -113 47t-47 113v1216q0 66 47 113t113 47h1344q66 0 113 -47t47 -113z" />
</g>
</svg>	
