<?xml version="1.0" encoding="ISO-8859-1"?>
<!-- Converted from Font Awesome. Glyph: f09d -->
<!DOCTYPE svg PUBLIC "-//W3C//DTD SVG 1.1//EN" "http://www.w3.org/Graphics/SVG/1.1/DTD/svg11.dtd">
<svg version="1.1" xmlns="http://www.w3.org/2000/svg" xmlns:xlink="http://www.w3.org/1999/xlink" width="2048" height="2048" xml:space="preserve">
<g transform="translate(64, 1664) scale(1, -1)">
	<path id="credit-card" d="M1760 1408q66 0 113 -47t47 -113v-1216q0 -66 -47 -113t-113 -47h-1600q-66 0 -113 47t-47 113v1216q0 66 47 113t113 47h1600zM160 1280q-13 0 -22.5 -9.5t-9.5 -22.5v-224h1664v224q0 13 -9.5 22.5t-22.5 9.5h-1600zM1760 0q13 0 22.5 9.5t9.5 22.5v608h-1664v-608 q0 -13 9.5 -22.5t22.5 -9.5h1600zM256 128v128h256v-128h-256zM640 128v128h384v-128h-384z" />
</g>
</svg>	
