<?xml version="1.0" encoding="ISO-8859-1"?>
<!-- Converted from Font Awesome. Glyph: f052 -->
<!DOCTYPE svg PUBLIC "-//W3C//DTD SVG 1.1//EN" "http://www.w3.org/Graphics/SVG/1.1/DTD/svg11.dtd">
<svg version="1.1" xmlns="http://www.w3.org/2000/svg" xmlns:xlink="http://www.w3.org/1999/xlink" width="2048" height="2048" xml:space="preserve">
<g transform="translate(255, 1664) scale(1, -1)">
	<path id="eject" d="M14 557l710 710q19 19 45 19t45 -19l710 -710q19 -19 13 -32t-32 -13h-1472q-26 0 -32 13t13 32zM1473 0h-1408q-26 0 -45 19t-19 45v256q0 26 19 45t45 19h1408q26 0 45 -19t19 -45v-256q0 -26 -19 -45t-45 -19z" />
</g>
</svg>	
