<?xml version="1.0" encoding="ISO-8859-1"?>
<!-- Converted from Font Awesome. Glyph: f12a -->
<!DOCTYPE svg PUBLIC "-//W3C//DTD SVG 1.1//EN" "http://www.w3.org/Graphics/SVG/1.1/DTD/svg11.dtd">
<svg version="1.1" xmlns="http://www.w3.org/2000/svg" xmlns:xlink="http://www.w3.org/1999/xlink" width="2048" height="2048" xml:space="preserve">
<g transform="translate(704, 1664) scale(1, -1)">
	<path id="exclamation" d="M512 288v-224q0 -26 -19 -45t-45 -19h-256q-26 0 -45 19t-19 45v224q0 26 19 45t45 19h256q26 0 45 -19t19 -45zM542 1344l-28 -768q-1 -26 -20.5 -45t-45.5 -19h-256q-26 0 -45.5 19t-20.5 45l-28 768q-1 26 17.5 45t44.5 19h320q26 0 44.5 -19t17.5 -45z" />
</g>
</svg>	
