<?xml version="1.0" encoding="ISO-8859-1"?>
<!-- Converted from Font Awesome. Glyph: f050 -->
<!DOCTYPE svg PUBLIC "-//W3C//DTD SVG 1.1//EN" "http://www.w3.org/Graphics/SVG/1.1/DTD/svg11.dtd">
<svg version="1.1" xmlns="http://www.w3.org/2000/svg" xmlns:xlink="http://www.w3.org/1999/xlink" width="2048" height="2048" xml:space="preserve">
<g transform="translate(128, 1664) scale(1, -1)">
	<path id="fast-forward" d="M45 -115q-19 -19 -32 -13t-13 32v1472q0 26 13 32t32 -13l710 -710q8 -8 13 -19v710q0 26 13 32t32 -13l710 -710q8 -8 13 -19v678q0 26 19 45t45 19h128q26 0 45 -19t19 -45v-1408q0 -26 -19 -45t-45 -19h-128q-26 0 -45 19t-19 45v678q-5 -10 -13 -19l-710 -710 q-19 -19 -32 -13t-13 32v710q-5 -10 -13 -19z" />
</g>
</svg>	
