<?xml version="1.0" encoding="ISO-8859-1"?>
<!-- Converted from Font Awesome. Glyph: f0ac -->
<!DOCTYPE svg PUBLIC "-//W3C//DTD SVG 1.1//EN" "http://www.w3.org/Graphics/SVG/1.1/DTD/svg11.dtd">
<svg version="1.1" xmlns="http://www.w3.org/2000/svg" xmlns:xlink="http://www.w3.org/1999/xlink" width="2048" height="2048" xml:space="preserve">
<g transform="translate(256, 1664) scale(1, -1)">
	<path id="globe" d="M1193 993q11 7 25 22v-1q0 -2 -9.5 -10t-11.5 -12q-1 1 -4 1zM1187 992q-1 1 -2.5 3t-1.5 3q3 -2 10 -5q-6 -4 -6 -1zM728 1175q-16 2 -26 5q1 0 6.5 -1t10.5 -2t9 -2zM773 1212q7 4 13.5 2.5t7.5 -7.5q-5 3 -21 5zM765 1206l-3 2q-2 3 -5.5 5t-4.5 2q2 -1 21 -3 q-6 -4 -8 -6zM663 1290v2q1 -2 3 -5.5t3 -5.5zM558 1250q0 -2 -1 -2l-1 2h2zM933 206v-1v1zM768 1408q209 0 385.5 -103t279.5 -279.5t103 -385.5t-103 -385.5t-279.5 -279.5t-385.5 -103t-385.5 103t-279.5 279.5t-103 385.5t103 385.5t279.5 279.5t385.5 103zM1240 162 l5 5q-7 10 -29 12q1 12 -14 26.5t-27 15.5q0 4 -10.5 11t-17.5 8q-9 2 -27 -9q-7 -3 -4 -5q-3 3 -12 11t-16 11q-2 1 -7.5 1t-8.5 2q-1 1 -6 4.5t-7 4.5t-6.5 3t-7.5 1.5t-7.5 -2.5t-8.5 -6t-4.5 -15.5t-2.5 -14.5q-8 6 -0.5 20t1.5 20q-7 7 -21 0.5t-21 -15.5 q-1 -1 -9.5 -5.5t-11.5 -7.5q-4 -6 -9 -17.5t-6 -13.5q0 2 -2.5 6.5t-2.5 6.5q-12 -2 -16 3q5 -16 8 -17l-4 2q-1 -6 3 -15t4 -11q1 -5 -1.5 -13t-2.5 -11q0 -2 5 -11q4 -19 -2 -32q0 -1 -3.5 -7t-6.5 -11l-2 -5l-2 1q-1 1 -2 0q-1 -6 -9 -13t-10 -11q-15 -23 -9 -38 q3 -8 10 -10q3 -1 3 2q1 -9 -11 -27q1 -1 4 -3q-17 0 -10 -14q202 36 352 181h-3zM680 347q16 3 30.5 -16t22.5 -23q41 -20 59 -11q0 -9 14 -28q3 -4 6.5 -11.5t5.5 -10.5q5 -7 19 -16t19 -16q6 3 9 9q13 -35 24 -34q5 0 8 8q0 -1 -0.5 -3t-1.5 -3q7 15 5 26l6 4q5 4 5 5 q-6 6 -9 -3q-30 -14 -48 22q-2 3 -4.5 8t-5 12t-1.5 11.5t6 4.5q11 0 12.5 1.5t-2.5 6t-4 7.5q-1 4 -1.5 12.5t-1.5 12.5l-5 6q-5 6 -11.5 13.5t-7.5 9.5q-4 -10 -16.5 -8.5t-18.5 9.5q1 -2 -0.5 -6.5t-1.5 -6.5q-14 0 -17 1q1 6 3 21t4 22q1 5 5.5 13.5t8 15.5t4.5 14 t-4.5 10.5t-18.5 2.5q-20 -1 -29 -22q-1 -3 -3 -11.5t-5 -12.5t-9 -7q-8 -3 -27 -2t-26 5q-14 8 -24 30.5t-11 41.5q0 10 3 27.5t3 27t-6 26.5q3 2 10 10.5t11 11.5q2 2 5 2h5t4 2t3 6q-1 1 -4 3q-3 3 -4 3q4 -3 19 -1t19 2q0 1 22 0q17 -13 24 2q0 1 -2.5 10.5t-0.5 14.5 q5 -29 32 -10q3 -4 16.5 -6t18.5 -5q3 -2 7 -5.5t6 -5t6 -0.5t9 7q11 -17 13 -25q11 -43 20 -48q8 -2 12.5 -2t5 10.5t0 15.5t-1.5 13l-2 37q-16 3 -20 12.5t1.5 20t16.5 19.5q1 1 16.5 8t21.5 12q24 19 17 39q9 -2 11 9l-5 3q-4 3 -8 5.5t-5 1.5q11 7 2 18q5 3 8 11.5 t9 11.5q9 -14 22 -3q8 9 2 18q5 8 22 11.5t20 9.5q5 -1 7 0t2 4.5v7.5t1 8.5t3 7.5q4 6 16 10.5t14 5.5l19 12q4 4 0 4q18 -2 32 11q13 12 -5 23q2 7 -4 10.5t-16 5.5q3 1 12 0.5t12 1.5q15 11 -7 17q-20 5 -47 -13q-3 -2 -13 -12t-17 -11q15 18 5 22q8 -1 22.5 9t15.5 11 q4 2 10.5 2.5t8.5 1.5q71 25 92 -1q8 11 11 15t9.5 9t15.5 8q21 7 23 9l1 23q-12 -1 -18 8t-7 22l-6 -8q0 6 -3.5 7.5t-7.5 0.5t-9.5 -2t-7.5 0q-9 2 -19.5 15.5t-14.5 16.5q9 0 9 5q-2 5 -10 8q1 6 -2 8t-9 0q-2 12 -1 13q-6 1 -11 11t-8 10q-2 0 -4.5 -2t-5 -5.5l-5 -7 t-3.5 -5.5l-2 -2q-12 6 -24 -10q-9 1 -17 -2q15 6 2 13q-11 5 -21 2q12 5 10 14t-12 16q1 0 4 -1t4 -1q-1 5 -9.5 9.5t-19.5 9t-14 6.5q-7 5 -36 10.5t-36 1.5q-5 -3 -6 -6t1.5 -8.5t3.5 -8.5q6 -23 5 -27q-1 -3 -8.5 -8t-5.5 -12q1 -4 11.5 -10t12.5 -12q5 -13 -4 -25 q-4 -5 -15 -11t-14 -10q-5 -5 -3.5 -11.5t0.5 -9.5q1 1 1 2.5t1 2.5q0 -13 11 -22q8 -6 -16 -18q-20 -11 -20 -4q1 8 -7.5 16t-10.5 12t-3.5 19t-9.5 21q-6 4 -19 4t-18 -5q0 10 -49 30q-17 8 -58 4q7 1 0 17q-8 16 -21 12q-8 25 -4 35q2 5 9 14t9 15q1 3 15.5 6t16.5 8 q1 4 -2.5 6.5t-9.5 4.5q53 -6 63 18q5 9 3 14q0 -1 2 -1t2 -1q12 3 7 17q19 8 26 8q5 -1 11 -6t10 -5q17 -3 21.5 10t-9.5 23q7 -4 7 6q-1 13 -7 19q-3 2 -6.5 2.5t-6.5 0t-7 0.5q-1 0 -8 2q-1 -1 -2 -1h-8q-4 -2 -4 -5v-1q-1 -3 4 -6l5 -1l3 -2q-1 0 -2.5 -2.5t-2.5 -2.5 q0 -3 3 -5q-2 -1 -14 -7.5t-17 -10.5q-1 -1 -4 -2.5t-4 -2.5q-2 -1 -4 2t-4 9t-4 11.5t-4.5 10t-5.5 4.5q-12 0 -18 -17q3 10 -13 17.5t-25 7.5q20 15 -9 30l-1 1q-30 -4 -45 -7q-2 -6 3 -12q-1 -7 6 -9q0 -1 0.5 -1t0.5 -1q0 1 -0.5 1t-0.5 1q3 -1 10.5 -1.5t9.5 -1.5 q3 -1 4.5 -2l7.5 -5t5.5 -6t-2.5 -5q-2 -1 -9 -4t-12.5 -5.5t-6.5 -3.5q-3 -5 0 -16t-2 -15q-5 5 -10 18.5t-8 17.5q8 -9 -30 -6l-8 1q-4 0 -15 -2t-16 -1q-7 0 -29 6q7 17 5 25q5 0 7 2l-6 3q-3 -1 -25 -9q2 -3 8 -9.5t9 -11.5q-22 6 -27 -2q0 -1 -9 0q-25 1 -24 -7 q1 -4 9 -12q0 -9 -1 -9q-27 22 -30 23q-172 -83 -276 -248q1 -2 2.5 -11t3.5 -8.5t11 4.5q9 -9 3 -21q2 2 36 -21q56 -40 22 -53v5.5t1 6.5q-9 -1 -19 5q-3 -6 0.5 -20t11.5 -14q-8 0 -10.5 -17t-2.5 -38.5t-1 -25.5l2 -1q-3 -13 6 -37.5t24 -20.5q-4 -18 5 -21q-1 -4 0 -8 t4.5 -8.5t6 -7l7.5 -7.5l6 -6q28 -11 41 -29q4 -6 10.5 -24.5t15.5 -25.5q-2 -6 10 -21.5t11 -25.5q-1 0 -2.5 -0.5t-2.5 -0.5q3 -8 16.5 -16t16.5 -14q2 -3 2.5 -10.5t3 -12t8.5 -2.5q3 24 -26 68q-16 27 -18 31q-3 5 -5.5 16.5t-4.5 15.5q27 -9 26 -13q-5 -10 26 -52 q2 -3 10 -10t11 -12q3 -4 9.5 -14.5t10.5 -15.5q-1 0 -3 -2l-3 -3q4 -2 9 -5t8 -4.5t7.5 -5t7.5 -7.5q16 -18 20 -33q1 -4 0.5 -15.5t1.5 -16.5q2 -6 6 -11t11.5 -10t11.5 -7t14.5 -6.5t11.5 -5.5q2 -1 18 -11t25 -14q10 -4 16.5 -4.5t16 2.5t15.5 4z" />
</g>
</svg>	
