<?xml version="1.0" encoding="ISO-8859-1"?>
<!-- Converted from Font Awesome. Glyph: f08a -->
<!DOCTYPE svg PUBLIC "-//W3C//DTD SVG 1.1//EN" "http://www.w3.org/Graphics/SVG/1.1/DTD/svg11.dtd">
<svg version="1.1" xmlns="http://www.w3.org/2000/svg" xmlns:xlink="http://www.w3.org/1999/xlink" width="2048" height="2048" xml:space="preserve">
<g transform="translate(128, 1664) scale(1, -1)">
	<path id="heart-empty" d="M1664 940q0 81 -21.5 143t-55 98.5t-81.5 59.5t-94 31t-98 8t-112 -25.5t-110.5 -64t-86.5 -72t-60 -61.5q-18 -22 -49 -22t-49 22q-24 28 -60 61.5t-86.5 72t-110.5 64t-112 25.5t-98 -8t-94 -31t-81.5 -59.5t-55 -98.5t-21.5 -143q0 -168 187 -355l581 -560l580 559 q188 188 188 356zM1792 940q0 -221 -229 -450l-623 -600q-18 -18 -44 -18t-44 18l-624 602q-10 8 -27.5 26t-55.5 65.5t-68 97.5t-53.5 121t-23.5 138q0 220 127 344t351 124q62 0 126.5 -21.5t120 -58t95.5 -68.5t76 -68q36 36 76 68t95.5 68.5t120 58t126.5 21.5 q224 0 351 -124t127 -344z" />
</g>
</svg>	
