<?xml version="1.0" encoding="ISO-8859-1"?>
<!-- Converted from Font Awesome. Glyph: f01c -->
<!DOCTYPE svg PUBLIC "-//W3C//DTD SVG 1.1//EN" "http://www.w3.org/Graphics/SVG/1.1/DTD/svg11.dtd">
<svg version="1.1" xmlns="http://www.w3.org/2000/svg" xmlns:xlink="http://www.w3.org/1999/xlink" width="2048" height="2048" xml:space="preserve">
<g transform="translate(256, 1664) scale(1, -1)">
	<path id="inbox" d="M1023 576h316q-1 3 -2.5 8t-2.5 8l-212 496h-708l-212 -496q-1 -2 -2.5 -8t-2.5 -8h316l95 -192h320zM1536 546v-482q0 -26 -19 -45t-45 -19h-1408q-26 0 -45 19t-19 45v482q0 62 25 123l238 552q10 25 36.5 42t52.5 17h832q26 0 52.5 -17t36.5 -42l238 -552 q25 -61 25 -123z" />
</g>
</svg>	
