<?xml version="1.0" encoding="ISO-8859-1"?>
<!-- Converted from Font Awesome. Glyph: f033 -->
<!DOCTYPE svg PUBLIC "-//W3C//DTD SVG 1.1//EN" "http://www.w3.org/Graphics/SVG/1.1/DTD/svg11.dtd">
<svg version="1.1" xmlns="http://www.w3.org/2000/svg" xmlns:xlink="http://www.w3.org/1999/xlink" width="2048" height="2048" xml:space="preserve">
<g transform="translate(512, 1664) scale(1, -1)">
	<path id="italic" d="M0 -126l17 85q4 1 77 20q76 19 116 39q29 37 41 101l27 139l56 268l12 64q8 44 17 84.5t16 67t12.5 46.5t9 30.5t3.5 11.5l29 157l16 63l22 135l8 50v38q-41 22 -144 28q-28 2 -38 4l19 103l317 -14q39 -2 73 -2q66 0 214 9q33 2 68 4.5t36 2.5q-2 -19 -6 -38 q-7 -29 -13 -51q-55 -19 -109 -31q-64 -16 -101 -31q-12 -31 -24 -88q-9 -44 -13 -82q-44 -199 -66 -306l-61 -311l-38 -158l-43 -235l-12 -45q-2 -7 1 -27q64 -15 119 -21q36 -5 66 -10q-1 -29 -7 -58q-7 -31 -9 -41q-18 0 -23 -1q-24 -2 -42 -2q-9 0 -28 3q-19 4 -145 17 l-198 2q-41 1 -174 -11q-74 -7 -98 -9z" />
</g>
</svg>	
