<?xml version="1.0" encoding="ISO-8859-1"?>
<!-- Converted from Font Awesome. Glyph: f0d0 -->
<!DOCTYPE svg PUBLIC "-//W3C//DTD SVG 1.1//EN" "http://www.w3.org/Graphics/SVG/1.1/DTD/svg11.dtd">
<svg version="1.1" xmlns="http://www.w3.org/2000/svg" xmlns:xlink="http://www.w3.org/1999/xlink" width="2048" height="2048" xml:space="preserve">
<g transform="translate(192, 1664) scale(1, -1)">
	<path id="magic" d="M1190 955l293 293l-107 107l-293 -293zM1637 1248q0 -27 -18 -45l-1286 -1286q-18 -18 -45 -18t-45 18l-198 198q-18 18 -18 45t18 45l1286 1286q18 18 45 18t45 -18l198 -198q18 -18 18 -45zM286 1438l98 -30l-98 -30l-30 -98l-30 98l-98 30l98 30l30 98zM636 1276 l196 -60l-196 -60l-60 -196l-60 196l-196 60l196 60l60 196zM1566 798l98 -30l-98 -30l-30 -98l-30 98l-98 30l98 30l30 98zM926 1438l98 -30l-98 -30l-30 -98l-30 98l-98 30l98 30l30 98z" />
</g>
</svg>	
