<?xml version="1.0" encoding="ISO-8859-1"?>
<!-- Converted from Font Awesome. Glyph: f041 -->
<!DOCTYPE svg PUBLIC "-//W3C//DTD SVG 1.1//EN" "http://www.w3.org/Graphics/SVG/1.1/DTD/svg11.dtd">
<svg version="1.1" xmlns="http://www.w3.org/2000/svg" xmlns:xlink="http://www.w3.org/1999/xlink" width="2048" height="2048" xml:space="preserve">
<g transform="translate(512, 1664) scale(1, -1)">
	<path id="map-marker" d="M768 896q0 106 -75 181t-181 75t-181 -75t-75 -181t75 -181t181 -75t181 75t75 181zM1024 896q0 -109 -33 -179l-364 -774q-16 -33 -47.5 -52t-67.5 -19t-67.5 19t-46.5 52l-365 774q-33 70 -33 179q0 212 150 362t362 150t362 -150t150 -362z" />
</g>
</svg>	
