<?xml version="1.0" encoding="ISO-8859-1"?>
<!-- Converted from Font Awesome. Glyph: f0fa -->
<!DOCTYPE svg PUBLIC "-//W3C//DTD SVG 1.1//EN" "http://www.w3.org/Graphics/SVG/1.1/DTD/svg11.dtd">
<svg version="1.1" xmlns="http://www.w3.org/2000/svg" xmlns:xlink="http://www.w3.org/1999/xlink" width="2048" height="2048" xml:space="preserve">
<g transform="translate(128, 1664) scale(1, -1)">
	<path id="medkit" d="M1280 416v192q0 14 -9 23t-23 9h-224v224q0 14 -9 23t-23 9h-192q-14 0 -23 -9t-9 -23v-224h-224q-14 0 -23 -9t-9 -23v-192q0 -14 9 -23t23 -9h224v-224q0 -14 9 -23t23 -9h192q14 0 23 9t9 23v224h224q14 0 23 9t9 23zM640 1152h512v128h-512v-128zM256 1152v-1280h-32 q-92 0 -158 66t-66 158v832q0 92 66 158t158 66h32zM1440 1152v-1280h-1088v1280h160v160q0 40 28 68t68 28h576q40 0 68 -28t28 -68v-160h160zM1792 928v-832q0 -92 -66 -158t-158 -66h-32v1280h32q92 0 158 -66t66 -158z" />
</g>
</svg>	
