<?xml version="1.0" encoding="ISO-8859-1"?>
<!-- Converted from Font Awesome. Glyph: f11a -->
<!DOCTYPE svg PUBLIC "-//W3C//DTD SVG 1.1//EN" "http://www.w3.org/Graphics/SVG/1.1/DTD/svg11.dtd">
<svg version="1.1" xmlns="http://www.w3.org/2000/svg" xmlns:xlink="http://www.w3.org/1999/xlink" width="2048" height="2048" xml:space="preserve">
<g transform="translate(256, 1664) scale(1, -1)">
	<path id="meh" d="M1152 448q0 -26 -19 -45t-45 -19h-640q-26 0 -45 19t-19 45t19 45t45 19h640q26 0 45 -19t19 -45zM640 896q0 -53 -37.5 -90.5t-90.5 -37.5t-90.5 37.5t-37.5 90.5t37.5 90.5t90.5 37.5t90.5 -37.5t37.5 -90.5zM1152 896q0 -53 -37.5 -90.5t-90.5 -37.5t-90.5 37.5 t-37.5 90.5t37.5 90.5t90.5 37.5t90.5 -37.5t37.5 -90.5zM1408 640q0 130 -51 248.5t-136.5 204t-204 136.5t-248.5 51t-248.5 -51t-204 -136.5t-136.5 -204t-51 -248.5t51 -248.5t136.5 -204t204 -136.5t248.5 -51t248.5 51t204 136.5t136.5 204t51 248.5zM1536 640 q0 -209 -103 -385.5t-279.5 -279.5t-385.5 -103t-385.5 103t-279.5 279.5t-103 385.5t103 385.5t279.5 279.5t385.5 103t385.5 -103t279.5 -279.5t103 -385.5z" />
</g>
</svg>	
