<?xml version="1.0" encoding="ISO-8859-1"?>
<!-- Converted from Font Awesome. Glyph: f0d6 -->
<!DOCTYPE svg PUBLIC "-//W3C//DTD SVG 1.1//EN" "http://www.w3.org/Graphics/SVG/1.1/DTD/svg11.dtd">
<svg version="1.1" xmlns="http://www.w3.org/2000/svg" xmlns:xlink="http://www.w3.org/1999/xlink" width="2048" height="2048" xml:space="preserve">
<g transform="translate(64, 1664) scale(1, -1)">
	<path id="money" d="M768 384h384v96h-128v448h-114l-148 -137l77 -80q42 37 55 57h2v-288h-128v-96zM1280 640q0 -70 -21 -142t-59.5 -134t-101.5 -101t-138 -39t-138 39t-101.5 101t-59.5 134t-21 142t21 142t59.5 134t101.5 101t138 39t138 -39t101.5 -101t59.5 -134t21 -142zM1792 384 v512q-106 0 -181 75t-75 181h-1152q0 -106 -75 -181t-181 -75v-512q106 0 181 -75t75 -181h1152q0 106 75 181t181 75zM1920 1216v-1152q0 -26 -19 -45t-45 -19h-1792q-26 0 -45 19t-19 45v1152q0 26 19 45t45 19h1792q26 0 45 -19t19 -45z" />
</g>
</svg>	
