<?xml version="1.0" encoding="ISO-8859-1"?>
<!-- Converted from Font Awesome. Glyph: f001 -->
<!DOCTYPE svg PUBLIC "-//W3C//DTD SVG 1.1//EN" "http://www.w3.org/Graphics/SVG/1.1/DTD/svg11.dtd">
<svg version="1.1" xmlns="http://www.w3.org/2000/svg" xmlns:xlink="http://www.w3.org/1999/xlink" width="2048" height="2048" xml:space="preserve">
<g transform="translate(256, 1664) scale(1, -1)">
	<path id="music" d="M1536 1312v-1120q0 -50 -34 -89t-86 -60.5t-103.5 -32t-96.5 -10.5t-96.5 10.5t-103.5 32t-86 60.5t-34 89t34 89t86 60.5t103.5 32t96.5 10.5q105 0 192 -39v537l-768 -237v-709q0 -50 -34 -89t-86 -60.5t-103.5 -32t-96.5 -10.5t-96.5 10.5t-103.5 32t-86 60.5t-34 89 t34 89t86 60.5t103.5 32t96.5 10.5q105 0 192 -39v967q0 31 19 56.5t49 35.5l832 256q12 4 28 4q40 0 68 -28t28 -68z" />
</g>
</svg>	
