<?xml version="1.0" encoding="ISO-8859-1"?>
<!-- Converted from Font Awesome. Glyph: f040 -->
<!DOCTYPE svg PUBLIC "-//W3C//DTD SVG 1.1//EN" "http://www.w3.org/Graphics/SVG/1.1/DTD/svg11.dtd">
<svg version="1.1" xmlns="http://www.w3.org/2000/svg" xmlns:xlink="http://www.w3.org/1999/xlink" width="2048" height="2048" xml:space="preserve">
<g transform="translate(256, 1664) scale(1, -1)">
	<path id="pencil" d="M363 0l91 91l-235 235l-91 -91v-107h128v-128h107zM886 928q0 22 -22 22q-10 0 -17 -7l-542 -542q-7 -7 -7 -17q0 -22 22 -22q10 0 17 7l542 542q7 7 7 17zM832 1120l416 -416l-832 -832h-416v416zM1515 1024q0 -53 -37 -90l-166 -166l-416 416l166 165q36 38 90 38 q53 0 91 -38l235 -234q37 -39 37 -91z" />
</g>
</svg>	
