<?xml version="1.0" encoding="ISO-8859-1"?>
<!-- Converted from Font Awesome. Glyph: f01d -->
<!DOCTYPE svg PUBLIC "-//W3C//DTD SVG 1.1//EN" "http://www.w3.org/Graphics/SVG/1.1/DTD/svg11.dtd">
<svg version="1.1" xmlns="http://www.w3.org/2000/svg" xmlns:xlink="http://www.w3.org/1999/xlink" width="2048" height="2048" xml:space="preserve">
<g transform="translate(256, 1664) scale(1, -1)">
	<path id="play-circle" d="M1184 640q0 -37 -32 -55l-544 -320q-15 -9 -32 -9q-16 0 -32 8q-32 19 -32 56v640q0 37 32 56q33 18 64 -1l544 -320q32 -18 32 -55zM1312 640q0 148 -73 273t-198 198t-273 73t-273 -73t-198 -198t-73 -273t73 -273t198 -198t273 -73t273 73t198 198t73 273zM1536 640 q0 -209 -103 -385.5t-279.5 -279.5t-385.5 -103t-385.5 103t-279.5 279.5t-103 385.5t103 385.5t279.5 279.5t385.5 103t385.5 -103t279.5 -279.5t103 -385.5z" />
</g>
</svg>	
