<?xml version="1.0" encoding="ISO-8859-1"?>
<!-- Converted from Font Awesome. Glyph: f055 -->
<!DOCTYPE svg PUBLIC "-//W3C//DTD SVG 1.1//EN" "http://www.w3.org/Graphics/SVG/1.1/DTD/svg11.dtd">
<svg version="1.1" xmlns="http://www.w3.org/2000/svg" xmlns:xlink="http://www.w3.org/1999/xlink" width="2048" height="2048" xml:space="preserve">
<g transform="translate(256, 1664) scale(1, -1)">
	<path id="plus-sign" d="M1216 576v128q0 26 -19 45t-45 19h-256v256q0 26 -19 45t-45 19h-128q-26 0 -45 -19t-19 -45v-256h-256q-26 0 -45 -19t-19 -45v-128q0 -26 19 -45t45 -19h256v-256q0 -26 19 -45t45 -19h128q26 0 45 19t19 45v256h256q26 0 45 19t19 45zM1536 640q0 -209 -103 -385.5 t-279.5 -279.5t-385.5 -103t-385.5 103t-279.5 279.5t-103 385.5t103 385.5t279.5 279.5t385.5 103t385.5 -103t279.5 -279.5t103 -385.5z" />
</g>
</svg>	
