<?xml version="1.0" encoding="ISO-8859-1"?>
<!-- Converted from Font Awesome. Glyph: f01e -->
<!DOCTYPE svg PUBLIC "-//W3C//DTD SVG 1.1//EN" "http://www.w3.org/Graphics/SVG/1.1/DTD/svg11.dtd">
<svg version="1.1" xmlns="http://www.w3.org/2000/svg" xmlns:xlink="http://www.w3.org/1999/xlink" width="2048" height="2048" xml:space="preserve">
<g transform="translate(256, 1664) scale(1, -1)">
	<path id="repeat" d="M1536 1280v-448q0 -26 -19 -45t-45 -19h-448q-42 0 -59 40q-17 39 14 69l138 138q-148 137 -349 137q-104 0 -198.5 -40.5t-163.5 -109.5t-109.5 -163.5t-40.5 -198.5t40.5 -198.5t109.5 -163.5t163.5 -109.5t198.5 -40.5q169 0 304 99.5t185 261.5q7 23 30 23h199 q16 0 25 -12q10 -13 7 -27q-39 -175 -147.5 -312t-266 -213t-336.5 -76q-156 0 -298 61t-245 164t-164 245t-61 298t61 298t164 245t245 164t298 61q147 0 284.5 -55.5t244.5 -156.5l130 129q29 31 70 14q39 -17 39 -59z" />
</g>
</svg>	
