<?xml version="1.0" encoding="ISO-8859-1"?>
<!-- Converted from Font Awesome. Glyph: f135 -->
<!DOCTYPE svg PUBLIC "-//W3C//DTD SVG 1.1//EN" "http://www.w3.org/Graphics/SVG/1.1/DTD/svg11.dtd">
<svg version="1.1" xmlns="http://www.w3.org/2000/svg" xmlns:xlink="http://www.w3.org/1999/xlink" width="2048" height="2048" xml:space="preserve">
<g transform="translate(192, 1664) scale(1, -1)">
	<path id="rocket" d="M1440 1088q0 40 -28 68t-68 28t-68 -28t-28 -68t28 -68t68 -28t68 28t28 68zM1664 1376q0 -249 -75.5 -430.5t-253.5 -360.5q-81 -80 -195 -176l-20 -379q-2 -16 -16 -26l-384 -224q-7 -4 -16 -4q-12 0 -23 9l-64 64q-13 14 -8 32l85 276l-281 281l-276 -85q-3 -1 -9 -1 q-14 0 -23 9l-64 64q-17 19 -5 39l224 384q10 14 26 16l379 20q96 114 176 195q188 187 358 258t431 71q14 0 24 -9.5t10 -22.5z" />
</g>
</svg>	
