<?xml version="1.0" encoding="ISO-8859-1"?>
<!-- Converted from Font Awesome. Glyph: f002 -->
<!DOCTYPE svg PUBLIC "-//W3C//DTD SVG 1.1//EN" "http://www.w3.org/Graphics/SVG/1.1/DTD/svg11.dtd">
<svg version="1.1" xmlns="http://www.w3.org/2000/svg" xmlns:xlink="http://www.w3.org/1999/xlink" width="2048" height="2048" xml:space="preserve">
<g transform="translate(192, 1664) scale(1, -1)">
	<path id="search" d="M1152 704q0 185 -131.5 316.5t-316.5 131.5t-316.5 -131.5t-131.5 -316.5t131.5 -316.5t316.5 -131.5t316.5 131.5t131.5 316.5zM1664 -128q0 -52 -38 -90t-90 -38q-54 0 -90 38l-343 342q-179 -124 -399 -124q-143 0 -273.5 55.5t-225 150t-150 225t-55.5 273.5 t55.5 273.5t150 225t225 150t273.5 55.5t273.5 -55.5t225 -150t150 -225t55.5 -273.5q0 -220 -124 -399l343 -343q37 -37 37 -90z" />
</g>
</svg>	
