<?xml version="1.0" encoding="ISO-8859-1"?>
<!-- Converted from Font Awesome. Glyph: f07a -->
<!DOCTYPE svg PUBLIC "-//W3C//DTD SVG 1.1//EN" "http://www.w3.org/Graphics/SVG/1.1/DTD/svg11.dtd">
<svg version="1.1" xmlns="http://www.w3.org/2000/svg" xmlns:xlink="http://www.w3.org/1999/xlink" width="2048" height="2048" xml:space="preserve">
<g transform="translate(192, 1664) scale(1, -1)">
	<path id="shopping-cart" d="M640 0q0 -53 -37.5 -90.5t-90.5 -37.5t-90.5 37.5t-37.5 90.5t37.5 90.5t90.5 37.5t90.5 -37.5t37.5 -90.5zM1536 0q0 -53 -37.5 -90.5t-90.5 -37.5t-90.5 37.5t-37.5 90.5t37.5 90.5t90.5 37.5t90.5 -37.5t37.5 -90.5zM1664 1088v-512q0 -24 -16 -42.5t-41 -21.5 l-1044 -122q1 -7 4.5 -21.5t6 -26.5t2.5 -22q0 -16 -24 -64h920q26 0 45 -19t19 -45t-19 -45t-45 -19h-1024q-26 0 -45 19t-19 45q0 14 11 39.5t29.5 59.5t20.5 38l-177 823h-204q-26 0 -45 19t-19 45t19 45t45 19h256q16 0 28.5 -6.5t20 -15.5t13 -24.5t7.5 -26.5 t5.5 -29.5t4.5 -25.5h1201q26 0 45 -19t19 -45z" />
</g>
</svg>	
