<?xml version="1.0" encoding="ISO-8859-1"?>
<!-- Converted from Font Awesome. Glyph: f118 -->
<!DOCTYPE svg PUBLIC "-//W3C//DTD SVG 1.1//EN" "http://www.w3.org/Graphics/SVG/1.1/DTD/svg11.dtd">
<svg version="1.1" xmlns="http://www.w3.org/2000/svg" xmlns:xlink="http://www.w3.org/1999/xlink" width="2048" height="2048" xml:space="preserve">
<g transform="translate(256, 1664) scale(1, -1)">
	<path id="smile" d="M1134 461q-37 -121 -138 -195t-228 -74t-228 74t-138 195q-8 25 4 48.5t38 31.5q25 8 48.5 -4t31.5 -38q25 -80 92.5 -129.5t151.5 -49.5t151.5 49.5t92.5 129.5q8 26 32 38t49 4t37 -31.5t4 -48.5zM640 896q0 -53 -37.5 -90.5t-90.5 -37.5t-90.5 37.5t-37.5 90.5 t37.5 90.5t90.5 37.5t90.5 -37.5t37.5 -90.5zM1152 896q0 -53 -37.5 -90.5t-90.5 -37.5t-90.5 37.5t-37.5 90.5t37.5 90.5t90.5 37.5t90.5 -37.5t37.5 -90.5zM1408 640q0 130 -51 248.5t-136.5 204t-204 136.5t-248.5 51t-248.5 -51t-204 -136.5t-136.5 -204t-51 -248.5 t51 -248.5t136.5 -204t204 -136.5t248.5 -51t248.5 51t204 136.5t136.5 204t51 248.5zM1536 640q0 -209 -103 -385.5t-279.5 -279.5t-385.5 -103t-385.5 103t-279.5 279.5t-103 385.5t103 385.5t279.5 279.5t385.5 103t385.5 -103t279.5 -279.5t103 -385.5z" />
</g>
</svg>	
