<?xml version="1.0" encoding="ISO-8859-1"?>
<!-- Converted from Font Awesome. Glyph: f048 -->
<!DOCTYPE svg PUBLIC "-//W3C//DTD SVG 1.1//EN" "http://www.w3.org/Graphics/SVG/1.1/DTD/svg11.dtd">
<svg version="1.1" xmlns="http://www.w3.org/2000/svg" xmlns:xlink="http://www.w3.org/1999/xlink" width="2048" height="2048" xml:space="preserve">
<g transform="translate(512, 1664) scale(1, -1)">
	<path id="step-backward" d="M979 1395q19 19 32 13t13 -32v-1472q0 -26 -13 -32t-32 13l-710 710q-9 9 -13 19v-678q0 -26 -19 -45t-45 -19h-128q-26 0 -45 19t-19 45v1408q0 26 19 45t45 19h128q26 0 45 -19t19 -45v-678q4 11 13 19z" />
</g>
</svg>	
