<?xml version="1.0" encoding="ISO-8859-1"?>
<!-- Converted from Font Awesome. Glyph: f0f2 -->
<!DOCTYPE svg PUBLIC "-//W3C//DTD SVG 1.1//EN" "http://www.w3.org/Graphics/SVG/1.1/DTD/svg11.dtd">
<svg version="1.1" xmlns="http://www.w3.org/2000/svg" xmlns:xlink="http://www.w3.org/1999/xlink" width="2048" height="2048" xml:space="preserve">
<g transform="translate(128, 1664) scale(1, -1)">
	<path id="suitcase" d="M640 1152h512v128h-512v-128zM288 1152v-1280h-64q-92 0 -158 66t-66 158v832q0 92 66 158t158 66h64zM1408 1152v-1280h-1024v1280h128v160q0 40 28 68t68 28h576q40 0 68 -28t28 -68v-160h128zM1792 928v-832q0 -92 -66 -158t-158 -66h-64v1280h64q92 0 158 -66 t66 -158z" />
</g>
</svg>	
