<?xml version="1.0" encoding="ISO-8859-1"?>
<!-- Converted from Font Awesome. Glyph: f10a -->
<!DOCTYPE svg PUBLIC "-//W3C//DTD SVG 1.1//EN" "http://www.w3.org/Graphics/SVG/1.1/DTD/svg11.dtd">
<svg version="1.1" xmlns="http://www.w3.org/2000/svg" xmlns:xlink="http://www.w3.org/1999/xlink" width="2048" height="2048" xml:space="preserve">
<g transform="translate(448, 1664) scale(1, -1)">
	<path id="tablet" d="M640 128q0 26 -19 45t-45 19t-45 -19t-19 -45t19 -45t45 -19t45 19t19 45zM1024 288v960q0 13 -9.5 22.5t-22.5 9.5h-832q-13 0 -22.5 -9.5t-9.5 -22.5v-960q0 -13 9.5 -22.5t22.5 -9.5h832q13 0 22.5 9.5t9.5 22.5zM1152 1248v-1088q0 -66 -47 -113t-113 -47h-832 q-66 0 -113 47t-47 113v1088q0 66 47 113t113 47h832q66 0 113 -47t47 -113z" />
</g>
</svg>	
