<?xml version="1.0" encoding="ISO-8859-1"?>
<!-- Converted from Font Awesome. Glyph: f009 -->
<!DOCTYPE svg PUBLIC "-//W3C//DTD SVG 1.1//EN" "http://www.w3.org/Graphics/SVG/1.1/DTD/svg11.dtd">
<svg version="1.1" xmlns="http://www.w3.org/2000/svg" xmlns:xlink="http://www.w3.org/1999/xlink" width="2048" height="2048" xml:space="preserve">
<g transform="translate(192, 1664) scale(1, -1)">
	<path id="th-large" d="M768 512v-384q0 -52 -38 -90t-90 -38h-512q-52 0 -90 38t-38 90v384q0 52 38 90t90 38h512q52 0 90 -38t38 -90zM768 1280v-384q0 -52 -38 -90t-90 -38h-512q-52 0 -90 38t-38 90v384q0 52 38 90t90 38h512q52 0 90 -38t38 -90zM1664 512v-384q0 -52 -38 -90t-90 -38 h-512q-52 0 -90 38t-38 90v384q0 52 38 90t90 38h512q52 0 90 -38t38 -90zM1664 1280v-384q0 -52 -38 -90t-90 -38h-512q-52 0 -90 38t-38 90v384q0 52 38 90t90 38h512q52 0 90 -38t38 -90z" />
</g>
</svg>	
