<?xml version="1.0" encoding="ISO-8859-1"?>
<!-- Converted from Font Awesome. Glyph: f00a -->
<!DOCTYPE svg PUBLIC "-//W3C//DTD SVG 1.1//EN" "http://www.w3.org/Graphics/SVG/1.1/DTD/svg11.dtd">
<svg version="1.1" xmlns="http://www.w3.org/2000/svg" xmlns:xlink="http://www.w3.org/1999/xlink" width="2048" height="2048" xml:space="preserve">
<g transform="translate(128, 1664) scale(1, -1)">
	<path id="th" d="M512 288v-192q0 -40 -28 -68t-68 -28h-320q-40 0 -68 28t-28 68v192q0 40 28 68t68 28h320q40 0 68 -28t28 -68zM512 800v-192q0 -40 -28 -68t-68 -28h-320q-40 0 -68 28t-28 68v192q0 40 28 68t68 28h320q40 0 68 -28t28 -68zM1152 288v-192q0 -40 -28 -68t-68 -28h-320 q-40 0 -68 28t-28 68v192q0 40 28 68t68 28h320q40 0 68 -28t28 -68zM512 1312v-192q0 -40 -28 -68t-68 -28h-320q-40 0 -68 28t-28 68v192q0 40 28 68t68 28h320q40 0 68 -28t28 -68zM1152 800v-192q0 -40 -28 -68t-68 -28h-320q-40 0 -68 28t-28 68v192q0 40 28 68t68 28 h320q40 0 68 -28t28 -68zM1792 288v-192q0 -40 -28 -68t-68 -28h-320q-40 0 -68 28t-28 68v192q0 40 28 68t68 28h320q40 0 68 -28t28 -68zM1152 1312v-192q0 -40 -28 -68t-68 -28h-320q-40 0 -68 28t-28 68v192q0 40 28 68t68 28h320q40 0 68 -28t28 -68zM1792 800v-192 q0 -40 -28 -68t-68 -28h-320q-40 0 -68 28t-28 68v192q0 40 28 68t68 28h320q40 0 68 -28t28 -68zM1792 1312v-192q0 -40 -28 -68t-68 -28h-320q-40 0 -68 28t-28 68v192q0 40 28 68t68 28h320q40 0 68 -28t28 -68z" />
</g>
</svg>	
