<?xml version="1.0" encoding="ISO-8859-1"?>
<!-- Converted from Font Awesome. Glyph: f01b -->
<!DOCTYPE svg PUBLIC "-//W3C//DTD SVG 1.1//EN" "http://www.w3.org/Graphics/SVG/1.1/DTD/svg11.dtd">
<svg version="1.1" xmlns="http://www.w3.org/2000/svg" xmlns:xlink="http://www.w3.org/1999/xlink" width="2048" height="2048" xml:space="preserve">
<g transform="translate(256, 1664) scale(1, -1)">
	<path id="upload" d="M1118 660q-8 -20 -30 -20h-192v-352q0 -14 -9 -23t-23 -9h-192q-14 0 -23 9t-9 23v352h-192q-14 0 -23 9t-9 23q0 12 10 24l319 319q11 9 23 9t23 -9l320 -320q15 -16 7 -35zM768 1184q-148 0 -273 -73t-198 -198t-73 -273t73 -273t198 -198t273 -73t273 73t198 198 t73 273t-73 273t-198 198t-273 73zM1536 640q0 -209 -103 -385.5t-279.5 -279.5t-385.5 -103t-385.5 103t-279.5 279.5t-103 385.5t103 385.5t279.5 279.5t385.5 103t385.5 -103t279.5 -279.5t103 -385.5z" />
</g>
</svg>	
