<?xml version="1.0" encoding="ISO-8859-1"?>
<!-- Converted from Font Awesome. Glyph: f007 -->
<!DOCTYPE svg PUBLIC "-//W3C//DTD SVG 1.1//EN" "http://www.w3.org/Graphics/SVG/1.1/DTD/svg11.dtd">
<svg version="1.1" xmlns="http://www.w3.org/2000/svg" xmlns:xlink="http://www.w3.org/1999/xlink" width="2048" height="2048" xml:space="preserve">
<g transform="translate(320, 1664) scale(1, -1)">
	<path id="user" d="M1408 131q0 -120 -73 -189.5t-194 -69.5h-874q-121 0 -194 69.5t-73 189.5q0 53 3.5 103.5t14 109t26.5 108.5t43 97.5t62 81t85.5 53.5t111.5 20q9 0 42 -21.5t74.5 -48t108 -48t133.5 -21.5t133.5 21.5t108 48t74.5 48t42 21.5q61 0 111.5 -20t85.5 -53.5t62 -81 t43 -97.5t26.5 -108.5t14 -109t3.5 -103.5zM1088 1024q0 -159 -112.5 -271.5t-271.5 -112.5t-271.5 112.5t-112.5 271.5t112.5 271.5t271.5 112.5t271.5 -112.5t112.5 -271.5z" />
</g>
</svg>	
