<?xml version="1.0" encoding="ISO-8859-1"?>
<!-- Converted from Font Awesome. Glyph: f0ed -->
<!DOCTYPE svg PUBLIC "-//W3C//DTD SVG 1.1//EN" "http://www.w3.org/Graphics/SVG/1.1/DTD/svg11.dtd">
<svg version="1.1" xmlns="http://www.w3.org/2000/svg" xmlns:xlink="http://www.w3.org/1999/xlink" width="2048" height="2048" xml:space="preserve">
<g transform="translate(64, 1664) scale(1, -1)">
	<path id="cloud-download" d="M1280 608q0 14 -9 23t-23 9h-224v352q0 13 -9.5 22.5t-22.5 9.5h-192q-13 0 -22.5 -9.5t-9.5 -22.5v-352h-224q-13 0 -22.5 -9.5t-9.5 -22.5q0 -14 9 -23l352 -352q9 -9 23 -9t23 9l351 351q10 12 10 24zM1920 384q0 -159 -112.5 -271.5t-271.5 -112.5h-1088 q-185 0 -316.5 131.5t-131.5 316.5q0 130 70 240t188 165q-2 30 -2 43q0 212 150 362t362 150q156 0 285.5 -87t188.5 -231q71 62 166 62q106 0 181 -75t75 -181q0 -76 -41 -138q130 -31 213.5 -135.5t83.5 -238.5z" />
</g>
</svg>	
