<?xml version="1.0" encoding="ISO-8859-1"?>
<!-- Converted from Font Awesome. Glyph: f0c2 -->
<!DOCTYPE svg PUBLIC "-//W3C//DTD SVG 1.1//EN" "http://www.w3.org/Graphics/SVG/1.1/DTD/svg11.dtd">
<svg version="1.1" xmlns="http://www.w3.org/2000/svg" xmlns:xlink="http://www.w3.org/1999/xlink" width="2048" height="2048" xml:space="preserve">
<g transform="translate(64, 1664) scale(1, -1)">
	<path id="cloud" d="M1920 384q0 -159 -112.5 -271.5t-271.5 -112.5h-1088q-185 0 -316.5 131.5t-131.5 316.5q0 132 71 241.5t187 163.5q-2 28 -2 43q0 212 150 362t362 150q158 0 286.5 -88t187.5 -230q70 62 166 62q106 0 181 -75t75 -181q0 -75 -41 -138q129 -30 213 -134.5t84 -239.5z " />
</g>
</svg>	
