<?xml version="1.0" encoding="ISO-8859-1"?>
<!-- Converted from Font Awesome. Glyph: f126 -->
<!DOCTYPE svg PUBLIC "-//W3C//DTD SVG 1.1//EN" "http://www.w3.org/Graphics/SVG/1.1/DTD/svg11.dtd">
<svg version="1.1" xmlns="http://www.w3.org/2000/svg" xmlns:xlink="http://www.w3.org/1999/xlink" width="2048" height="2048" xml:space="preserve">
<g transform="translate(512, 1664) scale(1, -1)">
	<path id="code-fork" d="M288 64q0 40 -28 68t-68 28t-68 -28t-28 -68t28 -68t68 -28t68 28t28 68zM288 1216q0 40 -28 68t-68 28t-68 -28t-28 -68t28 -68t68 -28t68 28t28 68zM928 1088q0 40 -28 68t-68 28t-68 -28t-28 -68t28 -68t68 -28t68 28t28 68zM1024 1088q0 -52 -26 -96.5t-70 -69.5 q-2 -287 -226 -414q-68 -38 -203 -81q-128 -40 -169.5 -71t-41.5 -100v-26q44 -25 70 -69.5t26 -96.5q0 -80 -56 -136t-136 -56t-136 56t-56 136q0 52 26 96.5t70 69.5v820q-44 25 -70 69.5t-26 96.5q0 80 56 136t136 56t136 -56t56 -136q0 -52 -26 -96.5t-70 -69.5v-497 q54 26 154 57q55 17 87.5 29.5t70.5 31t59 39.5t40.5 51t28 69.5t8.5 91.5q-44 25 -70 69.5t-26 96.5q0 80 56 136t136 56t136 -56t56 -136z" />
</g>
</svg>	
