<?xml version="1.0" encoding="ISO-8859-1"?>
<!-- Converted from Font Awesome. Glyph: f06a -->
<!DOCTYPE svg PUBLIC "-//W3C//DTD SVG 1.1//EN" "http://www.w3.org/Graphics/SVG/1.1/DTD/svg11.dtd">
<svg version="1.1" xmlns="http://www.w3.org/2000/svg" xmlns:xlink="http://www.w3.org/1999/xlink" width="2048" height="2048" xml:space="preserve">
<g transform="translate(256, 1664) scale(1, -1)">
	<path id="exclamation-sign" d="M768 1408q209 0 385.5 -103t279.5 -279.5t103 -385.5t-103 -385.5t-279.5 -279.5t-385.5 -103t-385.5 103t-279.5 279.5t-103 385.5t103 385.5t279.5 279.5t385.5 103zM896 161v190q0 14 -9 23.5t-22 9.5h-192q-13 0 -23 -10t-10 -23v-190q0 -13 10 -23t23 -10h192 q13 0 22 9.5t9 23.5zM894 505l18 621q0 12 -10 18q-10 8 -24 8h-220q-14 0 -24 -8q-10 -6 -10 -18l17 -621q0 -10 10 -17.5t24 -7.5h185q14 0 23.5 7.5t10.5 17.5z" />
</g>
</svg>	
