<?xml version="1.0" encoding="ISO-8859-1"?>
<!-- Converted from Font Awesome. Glyph: f0a0 -->
<!DOCTYPE svg PUBLIC "-//W3C//DTD SVG 1.1//EN" "http://www.w3.org/Graphics/SVG/1.1/DTD/svg11.dtd">
<svg version="1.1" xmlns="http://www.w3.org/2000/svg" xmlns:xlink="http://www.w3.org/1999/xlink" width="2048" height="2048" xml:space="preserve">
<g transform="translate(256, 1664) scale(1, -1)">
	<path id="hdd" d="M1040 320q0 -33 -23.5 -56.5t-56.5 -23.5t-56.5 23.5t-23.5 56.5t23.5 56.5t56.5 23.5t56.5 -23.5t23.5 -56.5zM1296 320q0 -33 -23.5 -56.5t-56.5 -23.5t-56.5 23.5t-23.5 56.5t23.5 56.5t56.5 23.5t56.5 -23.5t23.5 -56.5zM1408 160v320q0 13 -9.5 22.5t-22.5 9.5 h-1216q-13 0 -22.5 -9.5t-9.5 -22.5v-320q0 -13 9.5 -22.5t22.5 -9.5h1216q13 0 22.5 9.5t9.5 22.5zM178 640h1180l-157 482q-4 13 -16 21.5t-26 8.5h-782q-14 0 -26 -8.5t-16 -21.5zM1536 480v-320q0 -66 -47 -113t-113 -47h-1216q-66 0 -113 47t-47 113v320q0 25 16 75 l197 606q17 53 63 86t101 33h782q55 0 101 -33t63 -86l197 -606q16 -50 16 -75z" />
</g>
</svg>	
