<?xml version="1.0" encoding="ISO-8859-1"?>
<!-- Converted from Font Awesome. Glyph: f05a -->
<!DOCTYPE svg PUBLIC "-//W3C//DTD SVG 1.1//EN" "http://www.w3.org/Graphics/SVG/1.1/DTD/svg11.dtd">
<svg version="1.1" xmlns="http://www.w3.org/2000/svg" xmlns:xlink="http://www.w3.org/1999/xlink" width="2048" height="2048" xml:space="preserve">
<g transform="translate(256, 1664) scale(1, -1)">
	<path id="info-sign" d="M1024 160v160q0 14 -9 23t-23 9h-96v512q0 14 -9 23t-23 9h-320q-14 0 -23 -9t-9 -23v-160q0 -14 9 -23t23 -9h96v-320h-96q-14 0 -23 -9t-9 -23v-160q0 -14 9 -23t23 -9h448q14 0 23 9t9 23zM896 1056v160q0 14 -9 23t-23 9h-192q-14 0 -23 -9t-9 -23v-160q0 -14 9 -23 t23 -9h192q14 0 23 9t9 23zM1536 640q0 -209 -103 -385.5t-279.5 -279.5t-385.5 -103t-385.5 103t-279.5 279.5t-103 385.5t103 385.5t279.5 279.5t385.5 103t385.5 -103t279.5 -279.5t103 -385.5z" />
</g>
</svg>	
