<?xml version="1.0" encoding="ISO-8859-1"?>
<!-- Converted from Font Awesome. Glyph: f148 -->
<!DOCTYPE svg PUBLIC "-//W3C//DTD SVG 1.1//EN" "http://www.w3.org/Graphics/SVG/1.1/DTD/svg11.dtd">
<svg version="1.1" xmlns="http://www.w3.org/2000/svg" xmlns:xlink="http://www.w3.org/1999/xlink" width="2048" height="2048" xml:space="preserve">
<g transform="translate(512, 1664) scale(1, -1)">
	<path id="level-up" d="M1018 933q-18 -37 -58 -37h-192v-864q0 -14 -9 -23t-23 -9h-704q-21 0 -29 18q-8 20 4 35l160 192q9 11 25 11h320v640h-192q-40 0 -58 37q-17 37 9 68l320 384q18 22 49 22t49 -22l320 -384q27 -32 9 -68z" />
</g>
</svg>	
