<?xml version="1.0" encoding="ISO-8859-1"?>
<!-- Converted from Font Awesome. Glyph: f04c -->
<!DOCTYPE svg PUBLIC "-//W3C//DTD SVG 1.1//EN" "http://www.w3.org/Graphics/SVG/1.1/DTD/svg11.dtd">
<svg version="1.1" xmlns="http://www.w3.org/2000/svg" xmlns:xlink="http://www.w3.org/1999/xlink" width="2048" height="2048" xml:space="preserve">
<g transform="translate(256, 1664) scale(1, -1)">
	<path id="pause" d="M1536 1344v-1408q0 -26 -19 -45t-45 -19h-512q-26 0 -45 19t-19 45v1408q0 26 19 45t45 19h512q26 0 45 -19t19 -45zM640 1344v-1408q0 -26 -19 -45t-45 -19h-512q-26 0 -45 19t-19 45v1408q0 26 19 45t45 19h512q26 0 45 -19t19 -45z" />
</g>
</svg>	
