<?xml version="1.0" encoding="ISO-8859-1"?>
<!-- Converted from Font Awesome. Glyph: f08d -->
<!DOCTYPE svg PUBLIC "-//W3C//DTD SVG 1.1//EN" "http://www.w3.org/Graphics/SVG/1.1/DTD/svg11.dtd">
<svg version="1.1" xmlns="http://www.w3.org/2000/svg" xmlns:xlink="http://www.w3.org/1999/xlink" width="2048" height="2048" xml:space="preserve">
<g transform="translate(448, 1664) scale(1, -1)">
	<path id="pushpin" d="M480 672v448q0 14 -9 23t-23 9t-23 -9t-9 -23v-448q0 -14 9 -23t23 -9t23 9t9 23zM1152 320q0 -26 -19 -45t-45 -19h-429l-51 -483q-2 -12 -10.5 -20.5t-20.5 -8.5h-1q-27 0 -32 27l-76 485h-404q-26 0 -45 19t-19 45q0 123 78.5 221.5t177.5 98.5v512q-52 0 -90 38 t-38 90t38 90t90 38h640q52 0 90 -38t38 -90t-38 -90t-90 -38v-512q99 0 177.5 -98.5t78.5 -221.5z" />
</g>
</svg>	
