<?xml version="1.0" encoding="ISO-8859-1"?>
<!-- Converted from Font Awesome. Glyph: f10e -->
<!DOCTYPE svg PUBLIC "-//W3C//DTD SVG 1.1//EN" "http://www.w3.org/Graphics/SVG/1.1/DTD/svg11.dtd">
<svg version="1.1" xmlns="http://www.w3.org/2000/svg" xmlns:xlink="http://www.w3.org/1999/xlink" width="2048" height="2048" xml:space="preserve">
<g transform="translate(192, 1664) scale(1, -1)">
	<path id="quote-right" d="M768 1216v-704q0 -104 -40.5 -198.5t-109.5 -163.5t-163.5 -109.5t-198.5 -40.5h-64q-26 0 -45 19t-19 45v128q0 26 19 45t45 19h64q106 0 181 75t75 181v32q0 40 -28 68t-68 28h-224q-80 0 -136 56t-56 136v384q0 80 56 136t136 56h384q80 0 136 -56t56 -136zM1664 1216 v-704q0 -104 -40.5 -198.5t-109.5 -163.5t-163.5 -109.5t-198.5 -40.5h-64q-26 0 -45 19t-19 45v128q0 26 19 45t45 19h64q106 0 181 75t75 181v32q0 40 -28 68t-68 28h-224q-80 0 -136 56t-56 136v384q0 80 56 136t136 56h384q80 0 136 -56t56 -136z" />
</g>
</svg>	
