<?xml version="1.0" encoding="ISO-8859-1"?>
<!-- Converted from Font Awesome. Glyph: f014 -->
<!DOCTYPE svg PUBLIC "-//W3C//DTD SVG 1.1//EN" "http://www.w3.org/Graphics/SVG/1.1/DTD/svg11.dtd">
<svg version="1.1" xmlns="http://www.w3.org/2000/svg" xmlns:xlink="http://www.w3.org/1999/xlink" width="2048" height="2048" xml:space="preserve">
<g transform="translate(320, 1664) scale(1, -1)">
	<path id="trash" d="M512 800v-576q0 -14 -9 -23t-23 -9h-64q-14 0 -23 9t-9 23v576q0 14 9 23t23 9h64q14 0 23 -9t9 -23zM768 800v-576q0 -14 -9 -23t-23 -9h-64q-14 0 -23 9t-9 23v576q0 14 9 23t23 9h64q14 0 23 -9t9 -23zM1024 800v-576q0 -14 -9 -23t-23 -9h-64q-14 0 -23 9t-9 23v576 q0 14 9 23t23 9h64q14 0 23 -9t9 -23zM1152 76v948h-896v-948q0 -22 7 -40.5t14.5 -27t10.5 -8.5h832q3 0 10.5 8.5t14.5 27t7 40.5zM480 1152h448l-48 117q-7 9 -17 11h-317q-10 -2 -17 -11zM1408 1120v-64q0 -14 -9 -23t-23 -9h-96v-948q0 -83 -47 -143.5t-113 -60.5h-832 q-66 0 -113 58.5t-47 141.5v952h-96q-14 0 -23 9t-9 23v64q0 14 9 23t23 9h309l70 167q15 37 54 63t79 26h320q40 0 79 -26t54 -63l70 -167h309q14 0 23 -9t9 -23z" />
</g>
</svg>	
