<?xml version="1.0" encoding="ISO-8859-1"?>
<!-- Converted from Font Awesome. Glyph: f0e7 -->
<!DOCTYPE svg PUBLIC "-//W3C//DTD SVG 1.1//EN" "http://www.w3.org/Graphics/SVG/1.1/DTD/svg11.dtd">
<svg version="1.1" xmlns="http://www.w3.org/2000/svg" xmlns:xlink="http://www.w3.org/1999/xlink" width="2048" height="2048" xml:space="preserve">
<g transform="translate(576, 1664) scale(1, -1)">
	<path id="bolt" d="M885 970q18 -20 7 -44l-540 -1157q-13 -25 -42 -25q-4 0 -14 2q-17 5 -25.5 19t-4.5 30l197 808l-406 -101q-4 -1 -12 -1q-18 0 -31 11q-18 15 -13 39l201 825q4 14 16 23t28 9h328q19 0 32 -12.5t13 -29.5q0 -8 -5 -18l-171 -463l396 98q8 2 12 2q19 0 34 -15z" />
</g>
</svg>	
