<?xml version="1.0" encoding="ISO-8859-1"?>
<!-- Converted from Font Awesome. Glyph: f157 -->
<!DOCTYPE svg PUBLIC "-//W3C//DTD SVG 1.1//EN" "http://www.w3.org/Graphics/SVG/1.1/DTD/svg11.dtd">
<svg version="1.1" xmlns="http://www.w3.org/2000/svg" xmlns:xlink="http://www.w3.org/1999/xlink" width="2048" height="2048" xml:space="preserve">
  <metadata>
    <rdf:RDF>
      <cc:Work>
        <dc:subject>
          <rdf:Bag><rdf:li>yen</rdf:li></rdf:Bag>
        </dc:subject>
      </cc:Work>
    </rdf:RDF>
  </metadata>
<g transform="translate(510, 1664) scale(1, -1)">
	<path id="jpy" d="M603 0h-172q-13 0 -22.5 9t-9.5 23v330h-288q-13 0 -22.5 9t-9.5 23v103q0 13 9.5 22.5t22.5 9.5h288v85h-288q-13 0 -22.5 9t-9.5 23v104q0 13 9.5 22.5t22.5 9.5h214l-321 578q-8 16 0 32q10 16 28 16h194q19 0 29 -18l215 -425q19 -38 56 -125q10 24 30.5 68t27.5 61 l191 420q8 19 29 19h191q17 0 27 -16q9 -14 1 -31l-313 -579h215q13 0 22.5 -9.5t9.5 -22.5v-104q0 -14 -9.5 -23t-22.5 -9h-290v-85h290q13 0 22.5 -9.5t9.5 -22.5v-103q0 -14 -9.5 -23t-22.5 -9h-290v-330q0 -13 -9.5 -22.5t-22.5 -9.5z" />
</g>
</svg>	
