<?xml version="1.0" encoding="ISO-8859-1"?>
<!-- Converted from Font Awesome. Glyph: f023 -->
<!DOCTYPE svg PUBLIC "-//W3C//DTD SVG 1.1//EN" "http://www.w3.org/Graphics/SVG/1.1/DTD/svg11.dtd">
<svg version="1.1" xmlns="http://www.w3.org/2000/svg" xmlns:xlink="http://www.w3.org/1999/xlink" width="2048" height="2048" xml:space="preserve">
<g transform="translate(448, 1664) scale(1, -1)">
	<path id="lock" d="M320 768h512v192q0 106 -75 181t-181 75t-181 -75t-75 -181v-192zM1152 672v-576q0 -40 -28 -68t-68 -28h-960q-40 0 -68 28t-28 68v576q0 40 28 68t68 28h32v192q0 184 132 316t316 132t316 -132t132 -316v-192h32q40 0 68 -28t28 -68z" />
</g>
</svg>	
