<?xml version="1.0" encoding="ISO-8859-1"?>
<!-- Converted from Font Awesome. Glyph: f18b -->
<!DOCTYPE svg PUBLIC "-//W3C//DTD SVG 1.1//EN" "http://www.w3.org/Graphics/SVG/1.1/DTD/svg11.dtd">
<svg version="1.1" xmlns="http://www.w3.org/2000/svg" xmlns:xlink="http://www.w3.org/1999/xlink" width="2048" height="2048" xml:space="preserve">
<g transform="translate(64, 1664) scale(1, -1)">
	<path id="renren" d="M805 163q-122 -67 -261 -67q-141 0 -261 67q98 61 167 149t94 191q25 -103 94 -191t167 -149zM453 1176v-344q0 -179 -89.5 -326t-234.5 -217q-129 152 -129 351q0 200 129.5 352t323.5 184zM958 991q-128 -152 -128 -351q0 -201 128 -351q-145 70 -234.5 218t-89.5 328 v341q196 -33 324 -185zM1638 163q-122 -67 -261 -67q-141 0 -261 67q98 61 167 149t94 191q25 -103 94 -191t167 -149zM1286 1176v-344q0 -179 -91 -326t-237 -217v0q133 154 133 351q0 195 -133 351q129 151 328 185zM1920 640q0 -201 -129 -351q-145 70 -234.5 218 t-89.5 328v341q194 -32 323.5 -184t129.5 -352z" />
</g>
</svg>	
