<?xml version="1.0" encoding="ISO-8859-1"?>
<!-- Converted from Font Awesome. Glyph: f173 -->
<!DOCTYPE svg PUBLIC "-//W3C//DTD SVG 1.1//EN" "http://www.w3.org/Graphics/SVG/1.1/DTD/svg11.dtd">
<svg version="1.1" xmlns="http://www.w3.org/2000/svg" xmlns:xlink="http://www.w3.org/1999/xlink" width="2048" height="2048" xml:space="preserve">
<g transform="translate(512, 1664) scale(1, -1)">
	<path id="tumblr" d="M390 1408h219v-388h364v-241h-364v-394q0 -136 14 -172q13 -37 52 -60q50 -31 117 -31q117 0 232 76v-242q-102 -48 -178 -65q-77 -19 -173 -19q-105 0 -186 27q-78 25 -138 75q-58 51 -79 105q-22 54 -22 161v539h-170v217q91 30 155 84q64 55 103 132q39 78 54 196z " />
</g>
</svg>	
