<?xml version="1.0" encoding="ISO-8859-1"?>
<!-- Converted from Font Awesome. Glyph: f09c -->
<!DOCTYPE svg PUBLIC "-//W3C//DTD SVG 1.1//EN" "http://www.w3.org/Graphics/SVG/1.1/DTD/svg11.dtd">
<svg version="1.1" xmlns="http://www.w3.org/2000/svg" xmlns:xlink="http://www.w3.org/1999/xlink" width="2048" height="2048" xml:space="preserve">
<g transform="translate(192, 1664) scale(1, -1)">
	<path id="unlock" d="M1664 960v-256q0 -26 -19 -45t-45 -19h-64q-26 0 -45 19t-19 45v256q0 106 -75 181t-181 75t-181 -75t-75 -181v-192h96q40 0 68 -28t28 -68v-576q0 -40 -28 -68t-68 -28h-960q-40 0 -68 28t-28 68v576q0 40 28 68t68 28h672v192q0 185 131.5 316.5t316.5 131.5 t316.5 -131.5t131.5 -316.5z" />
</g>
</svg>	
